<?xml version="1.0" encoding="utf-8"?>
<!-- Generator: Adobe Illustrator 19.1.1, SVG Export Plug-In . SVG Version: 6.00 Build 0)  -->
<svg version="1.1" id="Layer_1" xmlns="http://www.w3.org/2000/svg" xmlns:xlink="http://www.w3.org/1999/xlink" x="0px" y="0px"
	 viewBox="0 0 102 62.7" style="enable-background:new 0 0 102 62.7;" xml:space="preserve">
<style type="text/css">
	.st0{fill:none;stroke:#FEE716;stroke-width:2;stroke-miterlimit:10;}
</style>
<path id="TR" class="st0" d="M81.1,41.6c-3.4,0-5.8-1.5-7.6-2.8c2,0,12.3-3.4,12.3-19.7C85.8,1,69,1,69,1H1v15.4l26.7,0v45.2l19.8,0
	V41.5c0,0,10.6,11.8,15,16.2c4.4,4.4,9.9,3.9,9.9,3.9H101v-20C101,41.6,84.5,41.6,81.1,41.6z M61.8,27.4H47.5v-11h14
	c0,0,5.1,0,5,5.5C66.7,27.4,61.8,27.4,61.8,27.4z"/>
</svg>
